<mxfile host="app.diagrams.net" modified="2024-01-13T20:09:39.460Z" agent="Mozilla/5.0 (Linux; Android 10; K) AppleWebKit/537.36 (KHTML, like Gecko) Chrome/120.0.0.0 Mobile Safari/537.36" etag="wZTprRGXFuoiqHkiiHvw" version="22.1.18" type="github">
  <diagram name="Page-1" id="bItdRM6Zfl7botme1Q4r">
    <mxGraphModel dx="420" dy="681" grid="1" gridSize="10" guides="1" tooltips="1" connect="1" arrows="1" fold="1" page="0" pageScale="1" pageWidth="827" pageHeight="1169" math="0" shadow="0">
      <root>
        <mxCell id="0" />
        <mxCell id="1" parent="0" />
        <mxCell id="zPiq2Q-qILoBwZqm62kq-4" style="edgeStyle=orthogonalEdgeStyle;rounded=0;orthogonalLoop=1;jettySize=auto;html=1;entryX=0.5;entryY=0;entryDx=0;entryDy=0;" edge="1" parent="1" source="zPiq2Q-qILoBwZqm62kq-1" target="zPiq2Q-qILoBwZqm62kq-2">
          <mxGeometry relative="1" as="geometry" />
        </mxCell>
        <mxCell id="zPiq2Q-qILoBwZqm62kq-1" value="Download overpass" style="whiteSpace=wrap;html=1;fontSize=16;" vertex="1" parent="1">
          <mxGeometry x="80" y="240" width="120" height="60" as="geometry" />
        </mxCell>
        <mxCell id="zPiq2Q-qILoBwZqm62kq-6" style="edgeStyle=orthogonalEdgeStyle;rounded=0;orthogonalLoop=1;jettySize=auto;html=1;entryX=0.5;entryY=0;entryDx=0;entryDy=0;" edge="1" parent="1" source="zPiq2Q-qILoBwZqm62kq-2" target="zPiq2Q-qILoBwZqm62kq-5">
          <mxGeometry relative="1" as="geometry">
            <mxPoint x="140.00000000000006" y="470" as="targetPoint" />
          </mxGeometry>
        </mxCell>
        <mxCell id="zPiq2Q-qILoBwZqm62kq-2" value="Extraction entités" style="whiteSpace=wrap;html=1;fontSize=16;" vertex="1" parent="1">
          <mxGeometry x="80" y="360" width="120" height="63" as="geometry" />
        </mxCell>
        <mxCell id="zPiq2Q-qILoBwZqm62kq-5" value="Intégration base. Replace" style="whiteSpace=wrap;html=1;" vertex="1" parent="1">
          <mxGeometry x="80" y="480" width="120" height="60" as="geometry" />
        </mxCell>
        <mxCell id="zPiq2Q-qILoBwZqm62kq-7" value="Vue comparaison osm/atd" style="whiteSpace=wrap;html=1;" vertex="1" parent="1">
          <mxGeometry x="80" y="590" width="120" height="60" as="geometry" />
        </mxCell>
      </root>
    </mxGraphModel>
  </diagram>
</mxfile>
